<svg width="60" height="46" viewBox="0 0 60 46" fill="none" xmlns="http://www.w3.org/2000/svg">
<path d="M0.93466 45.5V33.6747C0.93466 30.0833 1.56972 26.273 2.83984 22.2436C4.15376 18.1705 6.03705 14.2506 8.4897 10.484C10.9862 6.67365 13.9863 3.36694 17.4901 0.563916L25.8991 7.3963C23.1399 11.3381 20.7311 15.455 18.6726 19.7472C16.6579 23.9955 15.6506 28.5504 15.6506 33.4119V45.5H0.93466ZM34.571 45.5V33.6747C34.571 30.0833 35.2061 26.273 36.4762 22.2436C37.7901 18.1705 39.6734 14.2506 42.1261 10.484C44.6225 6.67365 47.6226 3.36694 51.1264 0.563916L59.5355 7.3963C56.7763 11.3381 54.3674 15.455 52.309 19.7472C50.2943 23.9955 49.2869 28.5504 49.2869 33.4119V45.5H34.571Z" fill="#666666" fill-opacity="0.109804"/>
</svg>
